<?xml version="1.0" encoding="UTF-8"?>
<svg version="1.1" viewBox="0 0 512 512" xmlns="http://www.w3.org/2000/svg">
<rect x="1.1282" y="1.1282" width="509.74" height="509.74" fill-rule="evenodd" stroke="#000" stroke-width="2.2564"/>
<path d="m250.09 104.53-51.649 8.9043a36.616 36.616 160.91 0 0-11.191 3.8725 33.853 33.853 141.45 0 0-5.1345 4.092l-15.758 13.001a9.7474 9.7474 108.86 0 0-3.3038 9.6704l4.074 18.001a877.93 877.93 77.64 0 1 2.5686 11.722l4.7033 22.187a1591.2 1591.2 77.815 0 0 2.5328 11.73l3.9888 18.141a200.6 200.6 79.312 0 1 2.2245 11.787l2.8191 17.851a904.02 904.02 81.406 0 1 1.7932 11.865l2.5058 17.359a649.86 649.86 81.257 0 0 1.8239 11.86 154.18 154.18 82.958 0 1 0.95126 7.7004l1.0103 9.024a1416.7 1416.7 83.369 0 0 1.3857 11.92l0.12808 1.0626a759.46 759.46 83.579 0 1 1.342 11.924l0.15791 1.5105a268.89 268.89 85.31 0 1 0.98093 11.957l0.0688 1.1545a211.12 211.12 88.216 0 1 0.37338 11.989l0.12261 45.064a5.9355 5.9355 44.534 0 0 6.0158 5.9188l45.379-0.61394a443.48 443.48 1.1347e-5 0 1 11.999 0l45.377 0.61394a5.9357 5.9357 135.47 0 0 6.016-5.9188l0.12393-45.064a211.7 211.7 91.781 0 1 0.37281-11.989l0.0687-1.1544a267.32 267.32 94.69 0 1 0.98098-11.957l0.15797-1.509a772.26 772.26 96.421 0 1 1.342-11.924l0.12793-1.0624a1438.3 1438.3 96.627 0 0 1.3849-11.92l1.0103-9.024a238.55 238.55 97.829 0 1 1.6341-11.884 422.45 422.45 98.456 0 0 1.1414-7.6777l2.5068-17.36a911.63 911.63 98.594 0 1 1.7932-11.865l2.8181-17.851a200.24 200.24 100.69 0 1 2.2244-11.787l3.9898-18.141a1580.1 1580.1 102.19 0 0 2.5331-11.73l4.7033-22.187a877.93 877.93 102.36 0 1 2.5686-11.722l4.074-18.001a9.7474 9.7474 71.138 0 0-3.3038-9.6704l-15.758-13.001a61.582 61.582 33.958 0 0-9.9064-6.6715 20.247 20.247 11.389 0 0-6.4191-1.293l-51.649-8.9043a34.803 34.803 0 0 0-11.826 0z" fill="#fff" stroke-width=".85474"/>
</svg>
